<svg id="svg" version="1.1" xmlns="http://www.w3.org/2000/svg" xmlns:xlink="http://www.w3.org/1999/xlink" width="400" height="400" viewBox="0, 0, 400,400"><g id="svgg"><path id="path0" d="M108.845 45.032 C 90.607 49.937,86.505 73.765,102.115 84.126 C 107.112 87.443,102.294 87.200,163.164 87.200 C 192.858 87.200,217.242 87.344,217.350 87.519 C 217.665 88.028,217.104 88.635,215.612 89.400 C 211.336 91.592,207.512 97.424,206.811 102.822 C 206.392 106.049,206.233 181.100,206.643 182.167 C 206.862 182.740,211.677 182.800,257.061 182.800 L 307.236 182.800 307.103 122.700 C 306.972 63.257,306.962 62.571,306.143 59.915 C 303.884 52.584,297.386 46.512,290.000 44.830 C 286.852 44.112,111.535 44.309,108.845 45.032 M206.782 224.100 C 206.772 224.375,206.715 237.830,206.656 254.000 C 206.543 284.962,206.501 285.784,204.579 294.442 C 198.892 320.061,184.887 332.756,161.103 333.850 C 137.248 334.947,113.986 320.972,105.967 300.727 C 101.342 289.050,101.426 284.550,106.314 282.028 C 110.557 279.839,113.754 282.341,115.144 288.937 C 117.191 298.651,124.566 309.114,133.649 315.190 C 159.721 332.629,196.170 311.636,196.135 279.200 C 196.097 243.885,160.217 222.951,124.284 237.280 C 83.965 253.357,80.339 308.836,117.746 337.311 C 134.641 350.172,155.193 355.750,183.200 355.075 C 234.743 353.833,271.131 335.167,290.175 300.200 C 291.013 298.660,291.832 297.220,291.994 297.000 C 292.743 295.982,296.893 286.110,298.383 281.800 C 299.296 279.160,300.202 276.550,300.396 276.000 C 300.726 275.068,301.215 273.073,303.171 264.700 C 304.480 259.095,304.755 257.566,305.390 252.400 C 306.399 244.186,307.190 233.719,307.195 228.500 L 307.200 223.600 257.000 223.600 C 217.116 223.600,206.796 223.703,206.782 224.100 " stroke="none" fill="#1c2c6c" fill-rule="evenodd"></path><path id="path1" d="M178.500 0.274 C 176.465 0.360,174.800 0.603,174.800 0.815 C 174.800 1.029,173.392 1.200,171.624 1.200 C 169.877 1.200,168.336 1.380,168.200 1.600 C 168.064 1.820,166.973 2.000,165.776 2.000 C 164.579 2.000,163.600 2.180,163.600 2.400 C 163.600 2.620,162.700 2.800,161.600 2.800 C 160.500 2.800,159.600 2.980,159.600 3.200 C 159.600 3.420,158.700 3.600,157.600 3.600 C 156.500 3.600,155.600 3.780,155.600 4.000 C 155.600 4.220,154.880 4.400,154.000 4.400 C 153.120 4.400,152.400 4.580,152.400 4.800 C 152.400 5.020,151.680 5.200,150.800 5.200 C 149.920 5.200,149.200 5.380,149.200 5.600 C 149.200 5.820,148.480 6.000,147.600 6.000 C 146.720 6.000,146.000 6.180,146.000 6.400 C 146.000 6.620,145.460 6.800,144.800 6.800 C 144.140 6.800,143.600 6.980,143.600 7.200 C 143.600 7.420,142.981 7.600,142.224 7.600 C 141.467 7.600,140.736 7.780,140.600 8.000 C 140.464 8.220,139.823 8.400,139.176 8.400 C 138.529 8.400,138.000 8.580,138.000 8.800 C 138.000 9.020,137.460 9.200,136.800 9.200 C 136.140 9.200,135.600 9.380,135.600 9.600 C 135.600 9.820,135.060 10.000,134.400 10.000 C 133.740 10.000,133.200 10.180,133.200 10.400 C 133.200 10.620,132.761 10.800,132.224 10.800 C 131.687 10.800,131.136 10.980,131.000 11.200 C 130.864 11.420,130.403 11.600,129.976 11.600 C 129.549 11.600,129.200 11.780,129.200 12.000 C 129.200 12.220,128.660 12.400,128.000 12.400 C 127.340 12.400,126.800 12.580,126.800 12.800 C 126.800 13.020,126.440 13.200,126.000 13.200 C 125.560 13.200,125.200 13.380,125.200 13.600 C 125.200 13.820,124.660 14.000,124.000 14.000 C 123.340 14.000,122.800 14.180,122.800 14.400 C 122.800 14.620,122.440 14.800,122.000 14.800 C 121.560 14.800,121.200 14.980,121.200 15.200 C 121.200 15.420,120.660 15.600,120.000 15.600 C 119.340 15.600,118.800 15.780,118.800 16.000 C 118.800 16.220,118.440 16.400,118.000 16.400 C 117.560 16.400,117.200 16.580,117.200 16.800 C 117.200 17.020,116.840 17.200,116.400 17.200 C 115.960 17.200,115.600 17.380,115.600 17.600 C 115.600 17.820,115.161 18.000,114.624 18.000 C 114.087 18.000,113.536 18.180,113.400 18.400 C 113.264 18.620,112.818 18.800,112.410 18.800 C 112.001 18.800,111.607 18.935,111.533 19.100 C 111.420 19.355,108.650 20.891,105.303 22.554 C 104.810 22.799,104.405 23.135,104.403 23.300 C 104.401 23.465,104.040 23.600,103.600 23.600 C 103.160 23.600,102.800 23.780,102.800 24.000 C 102.800 24.220,102.522 24.400,102.183 24.400 C 101.844 24.400,101.180 24.760,100.708 25.200 C 100.236 25.640,99.613 26.000,99.325 26.000 C 99.036 26.000,98.800 26.180,98.800 26.400 C 98.800 26.620,98.440 26.800,98.000 26.800 C 97.560 26.800,97.200 26.980,97.200 27.200 C 97.200 27.420,96.964 27.600,96.675 27.600 C 96.387 27.600,95.764 27.960,95.292 28.400 C 94.820 28.840,94.156 29.200,93.817 29.200 C 93.478 29.200,93.200 29.380,93.200 29.600 C 93.200 29.820,92.964 30.000,92.675 30.000 C 92.387 30.000,91.764 30.360,91.292 30.800 C 90.820 31.240,90.280 31.600,90.092 31.600 C 89.904 31.600,89.402 31.915,88.975 32.300 C 88.549 32.685,87.705 33.255,87.100 33.568 C 86.495 33.880,86.000 34.285,86.000 34.468 C 86.000 34.650,85.757 34.800,85.459 34.800 C 85.162 34.800,84.354 35.340,83.663 36.000 C 82.972 36.660,82.175 37.200,81.892 37.200 C 81.609 37.200,81.117 37.560,80.800 38.000 C 80.483 38.440,80.015 38.800,79.760 38.800 C 79.505 38.800,78.555 39.520,77.648 40.400 C 76.741 41.280,75.838 42.000,75.640 42.000 C 75.443 42.000,74.362 42.900,73.239 44.000 C 72.115 45.100,71.039 46.000,70.846 46.000 C 70.654 46.000,69.795 46.675,68.938 47.500 C 68.081 48.325,66.397 49.810,65.195 50.800 C 62.369 53.129,53.241 62.267,51.751 64.258 C 51.118 65.105,49.565 66.823,48.300 68.077 C 47.035 69.330,46.000 70.560,46.000 70.809 C 46.000 71.059,45.280 71.954,44.400 72.800 C 43.520 73.646,42.800 74.510,42.800 74.720 C 42.800 74.931,42.080 75.845,41.200 76.752 C 40.320 77.659,39.600 78.582,39.600 78.804 C 39.600 79.026,39.060 79.772,38.400 80.463 C 37.740 81.154,37.200 81.896,37.200 82.112 C 37.200 82.329,36.884 82.797,36.497 83.153 C 36.111 83.509,35.540 84.295,35.230 84.900 C 34.919 85.505,34.515 86.000,34.332 86.000 C 34.150 86.000,34.000 86.294,34.000 86.653 C 34.000 87.012,33.684 87.597,33.297 87.953 C 32.911 88.309,32.340 89.095,32.030 89.700 C 31.719 90.305,31.315 90.800,31.132 90.800 C 30.950 90.800,30.800 91.120,30.800 91.512 C 30.800 91.903,30.440 92.483,30.000 92.800 C 29.560 93.117,29.200 93.614,29.200 93.905 C 29.200 94.196,28.840 94.820,28.400 95.292 C 27.960 95.764,27.600 96.387,27.600 96.675 C 27.600 96.964,27.420 97.200,27.200 97.200 C 26.980 97.200,26.800 97.560,26.800 98.000 C 26.800 98.440,26.620 98.800,26.400 98.800 C 26.180 98.800,26.000 99.120,26.000 99.512 C 26.000 99.903,25.640 100.483,25.200 100.800 C 24.760 101.117,24.400 101.697,24.400 102.088 C 24.400 102.480,24.220 102.800,24.000 102.800 C 23.780 102.800,23.600 103.160,23.600 103.600 C 23.600 104.040,23.420 104.400,23.200 104.400 C 22.980 104.400,22.800 104.760,22.800 105.200 C 22.800 105.640,22.620 106.000,22.400 106.000 C 22.180 106.000,22.000 106.360,22.000 106.800 C 22.000 107.240,21.820 107.600,21.600 107.600 C 21.380 107.600,21.200 107.960,21.200 108.400 C 21.200 108.840,21.020 109.200,20.800 109.200 C 20.580 109.200,20.400 109.560,20.400 110.000 C 20.400 110.440,20.220 110.800,20.000 110.800 C 19.780 110.800,19.600 111.160,19.600 111.600 C 19.600 112.040,19.420 112.400,19.200 112.400 C 18.980 112.400,18.800 112.760,18.800 113.200 C 18.800 113.640,18.620 114.000,18.400 114.000 C 18.180 114.000,18.000 114.360,18.000 114.800 C 18.000 115.240,17.820 115.600,17.600 115.600 C 17.380 115.600,17.200 115.960,17.200 116.400 C 17.200 116.840,17.020 117.200,16.800 117.200 C 16.580 117.200,16.400 117.560,16.400 118.000 C 16.400 118.440,16.220 118.800,16.000 118.800 C 15.780 118.800,15.600 119.239,15.600 119.776 C 15.600 120.313,15.420 120.864,15.200 121.000 C 14.980 121.136,14.800 121.597,14.800 122.024 C 14.800 122.451,14.620 122.800,14.400 122.800 C 14.180 122.800,14.000 123.149,14.000 123.576 C 14.000 124.003,13.820 124.464,13.600 124.600 C 13.380 124.736,13.200 125.287,13.200 125.824 C 13.200 126.361,13.020 126.800,12.800 126.800 C 12.580 126.800,12.400 127.239,12.400 127.776 C 12.400 128.313,12.220 128.864,12.000 129.000 C 11.780 129.136,11.600 129.597,11.600 130.024 C 11.600 130.451,11.420 130.800,11.200 130.800 C 10.980 130.800,10.800 131.340,10.800 132.000 C 10.800 132.660,10.620 133.200,10.400 133.200 C 10.180 133.200,10.000 133.740,10.000 134.400 C 10.000 135.060,9.820 135.600,9.600 135.600 C 9.380 135.600,9.200 136.140,9.200 136.800 C 9.200 137.460,9.020 138.000,8.800 138.000 C 8.580 138.000,8.400 138.529,8.400 139.176 C 8.400 139.823,8.220 140.464,8.000 140.600 C 7.780 140.736,7.600 141.467,7.600 142.224 C 7.600 142.981,7.420 143.600,7.200 143.600 C 6.980 143.600,6.800 144.129,6.800 144.776 C 6.800 145.423,6.620 146.064,6.400 146.200 C 6.180 146.336,6.000 147.067,6.000 147.824 C 6.000 148.581,5.820 149.200,5.600 149.200 C 5.380 149.200,5.200 149.920,5.200 150.800 C 5.200 151.680,5.020 152.400,4.800 152.400 C 4.580 152.400,4.400 153.109,4.400 153.976 C 4.400 154.843,4.220 155.664,4.000 155.800 C 3.780 155.936,3.600 156.847,3.600 157.824 C 3.600 158.801,3.420 159.600,3.200 159.600 C 2.980 159.600,2.800 160.500,2.800 161.600 C 2.800 162.700,2.620 163.600,2.400 163.600 C 2.178 163.600,2.000 164.659,2.000 165.976 C 2.000 167.283,1.820 168.464,1.600 168.600 C 1.380 168.736,1.200 169.992,1.200 171.390 C 1.200 173.069,1.030 173.990,0.700 174.100 C -0.032 174.344,-0.032 224.856,0.700 225.100 C 1.044 225.215,1.200 226.256,1.200 228.433 C 1.200 230.278,1.367 231.600,1.600 231.600 C 1.820 231.600,2.000 232.489,2.000 233.576 C 2.000 234.663,2.180 235.664,2.400 235.800 C 2.620 235.936,2.800 237.027,2.800 238.224 C 2.800 239.421,2.980 240.400,3.200 240.400 C 3.420 240.400,3.600 241.300,3.600 242.400 C 3.600 243.500,3.780 244.400,4.000 244.400 C 4.220 244.400,4.400 245.120,4.400 246.000 C 4.400 246.880,4.580 247.600,4.800 247.600 C 5.020 247.600,5.200 248.320,5.200 249.200 C 5.200 250.080,5.380 250.800,5.600 250.800 C 5.820 250.800,6.000 251.419,6.000 252.176 C 6.000 252.933,6.180 253.664,6.400 253.800 C 6.620 253.936,6.800 254.577,6.800 255.224 C 6.800 255.871,6.980 256.400,7.200 256.400 C 7.420 256.400,7.600 257.019,7.600 257.776 C 7.600 258.533,7.780 259.264,8.000 259.400 C 8.220 259.536,8.400 260.177,8.400 260.824 C 8.400 261.471,8.580 262.000,8.800 262.000 C 9.020 262.000,9.200 262.540,9.200 263.200 C 9.200 263.860,9.380 264.400,9.600 264.400 C 9.820 264.400,10.000 264.940,10.000 265.600 C 10.000 266.260,10.180 266.800,10.400 266.800 C 10.620 266.800,10.800 267.340,10.800 268.000 C 10.800 268.660,10.980 269.200,11.200 269.200 C 11.420 269.200,11.600 269.549,11.600 269.976 C 11.600 270.403,11.780 270.864,12.000 271.000 C 12.220 271.136,12.400 271.687,12.400 272.224 C 12.400 272.761,12.580 273.200,12.800 273.200 C 13.020 273.200,13.200 273.549,13.200 273.976 C 13.200 274.403,13.380 274.864,13.600 275.000 C 13.820 275.136,14.000 275.687,14.000 276.224 C 14.000 276.761,14.180 277.200,14.400 277.200 C 14.620 277.200,14.800 277.560,14.800 278.000 C 14.800 278.440,14.980 278.800,15.200 278.800 C 15.420 278.800,15.600 279.239,15.600 279.776 C 15.600 280.313,15.780 280.864,16.000 281.000 C 16.220 281.136,16.400 281.597,16.400 282.024 C 16.400 282.451,16.580 282.800,16.800 282.800 C 17.020 282.800,17.200 283.160,17.200 283.600 C 17.200 284.040,17.380 284.400,17.600 284.400 C 17.820 284.400,18.000 284.760,18.000 285.200 C 18.000 285.640,18.180 286.000,18.400 286.000 C 18.620 286.000,18.800 286.245,18.800 286.544 C 18.800 287.201,21.276 292.145,21.700 292.333 C 21.865 292.407,22.000 292.812,22.000 293.233 C 22.000 293.655,22.180 294.000,22.400 294.000 C 22.620 294.000,22.800 294.360,22.800 294.800 C 22.800 295.240,22.980 295.600,23.200 295.600 C 23.420 295.600,23.600 295.960,23.600 296.400 C 23.600 296.840,23.780 297.200,24.000 297.200 C 24.220 297.200,24.400 297.560,24.400 298.000 C 24.400 298.440,24.580 298.800,24.800 298.800 C 25.020 298.800,25.200 299.036,25.200 299.325 C 25.200 299.613,25.560 300.236,26.000 300.708 C 26.440 301.180,26.800 301.844,26.800 302.183 C 26.800 302.522,26.980 302.800,27.200 302.800 C 27.420 302.800,27.600 303.120,27.600 303.512 C 27.600 303.903,27.960 304.483,28.400 304.800 C 28.840 305.117,29.200 305.657,29.200 306.000 C 29.200 306.343,29.560 306.883,30.000 307.200 C 30.440 307.517,30.800 308.097,30.800 308.488 C 30.800 308.880,30.980 309.200,31.200 309.200 C 31.420 309.200,31.600 309.425,31.601 309.700 C 31.601 309.975,32.141 310.830,32.800 311.600 C 33.459 312.370,33.999 313.185,33.999 313.412 C 34.000 313.638,34.360 314.083,34.800 314.400 C 35.240 314.717,35.600 315.209,35.600 315.492 C 35.600 315.775,36.140 316.572,36.800 317.263 C 37.460 317.954,38.000 318.722,38.000 318.971 C 38.000 319.220,38.360 319.683,38.800 320.000 C 39.240 320.317,39.600 320.785,39.600 321.040 C 39.600 321.295,40.320 322.245,41.200 323.152 C 42.080 324.059,42.800 324.995,42.800 325.232 C 42.800 325.469,43.520 326.354,44.400 327.200 C 45.280 328.046,46.000 328.918,46.000 329.138 C 46.000 329.358,47.215 330.774,48.700 332.284 C 50.185 333.793,51.903 335.695,52.517 336.510 C 53.965 338.430,62.370 346.835,64.290 348.283 C 65.105 348.897,67.007 350.615,68.516 352.100 C 70.026 353.585,71.445 354.800,71.670 354.800 C 71.895 354.800,72.583 355.340,73.200 356.000 C 73.817 356.660,74.481 357.200,74.676 357.200 C 74.872 357.200,75.828 357.920,76.800 358.800 C 77.772 359.680,78.760 360.400,78.996 360.400 C 79.231 360.400,79.683 360.760,80.000 361.200 C 80.317 361.640,80.762 362.000,80.988 362.001 C 81.215 362.001,82.030 362.541,82.800 363.200 C 83.570 363.859,84.385 364.399,84.612 364.399 C 84.838 364.400,85.283 364.760,85.600 365.200 C 85.917 365.640,86.457 366.000,86.800 366.000 C 87.143 366.000,87.683 366.360,88.000 366.800 C 88.317 367.240,88.857 367.600,89.200 367.600 C 89.543 367.600,90.083 367.960,90.400 368.400 C 90.717 368.840,91.257 369.200,91.600 369.200 C 91.943 369.200,92.483 369.560,92.800 370.000 C 93.117 370.440,93.697 370.800,94.088 370.800 C 94.480 370.800,94.800 370.980,94.800 371.200 C 94.800 371.420,95.036 371.600,95.325 371.600 C 95.613 371.600,96.236 371.960,96.708 372.400 C 97.180 372.840,97.844 373.200,98.183 373.200 C 98.522 373.200,98.800 373.380,98.800 373.600 C 98.800 373.820,99.078 374.000,99.417 374.000 C 99.756 374.000,100.420 374.360,100.892 374.800 C 101.364 375.240,101.987 375.600,102.275 375.600 C 102.564 375.600,102.800 375.780,102.800 376.000 C 102.800 376.220,103.160 376.400,103.600 376.400 C 104.040 376.400,104.400 376.580,104.400 376.800 C 104.400 377.020,104.760 377.200,105.200 377.200 C 105.640 377.200,106.000 377.380,106.000 377.600 C 106.000 377.820,106.360 378.000,106.800 378.000 C 107.240 378.000,107.600 378.180,107.600 378.400 C 107.600 378.620,107.960 378.800,108.400 378.800 C 108.840 378.800,109.200 378.980,109.200 379.200 C 109.200 379.420,109.560 379.600,110.000 379.600 C 110.440 379.600,110.800 379.780,110.800 380.000 C 110.800 380.220,111.160 380.400,111.600 380.400 C 112.040 380.400,112.400 380.580,112.400 380.800 C 112.400 381.020,112.760 381.200,113.200 381.200 C 113.640 381.200,114.000 381.380,114.000 381.600 C 114.000 381.820,114.360 382.000,114.800 382.000 C 115.240 382.000,115.600 382.180,115.600 382.400 C 115.600 382.620,115.949 382.800,116.376 382.800 C 116.803 382.800,117.264 382.980,117.400 383.200 C 117.536 383.420,118.087 383.600,118.624 383.600 C 119.161 383.600,119.600 383.780,119.600 384.000 C 119.600 384.220,119.960 384.400,120.400 384.400 C 120.840 384.400,121.200 384.580,121.200 384.800 C 121.200 385.020,121.560 385.200,122.000 385.200 C 122.440 385.200,122.800 385.380,122.800 385.600 C 122.800 385.820,123.340 386.000,124.000 386.000 C 124.660 386.000,125.200 386.180,125.200 386.400 C 125.200 386.620,125.549 386.800,125.976 386.800 C 126.403 386.800,126.864 386.980,127.000 387.200 C 127.136 387.420,127.687 387.600,128.224 387.600 C 128.761 387.600,129.200 387.780,129.200 388.000 C 129.200 388.220,129.562 388.400,130.005 388.400 C 130.448 388.400,131.168 388.580,131.605 388.800 C 132.042 389.020,132.758 389.380,133.195 389.600 C 133.632 389.820,134.341 390.000,134.771 390.000 C 135.201 390.000,135.664 390.180,135.800 390.400 C 135.936 390.620,136.487 390.800,137.024 390.800 C 137.561 390.800,138.000 390.980,138.000 391.200 C 138.000 391.420,138.540 391.600,139.200 391.600 C 139.860 391.600,140.400 391.780,140.400 392.000 C 140.400 392.220,141.120 392.400,142.000 392.400 C 142.880 392.400,143.600 392.580,143.600 392.800 C 143.600 393.020,144.140 393.200,144.800 393.200 C 145.460 393.200,146.000 393.380,146.000 393.600 C 146.000 393.820,146.720 394.000,147.600 394.000 C 148.480 394.000,149.200 394.180,149.200 394.400 C 149.200 394.620,149.920 394.800,150.800 394.800 C 151.680 394.800,152.400 394.980,152.400 395.200 C 152.400 395.420,153.120 395.600,154.000 395.600 C 154.880 395.600,155.600 395.780,155.600 396.000 C 155.600 396.220,156.399 396.400,157.376 396.400 C 158.353 396.400,159.264 396.580,159.400 396.800 C 159.536 397.020,160.616 397.200,161.800 397.200 C 162.984 397.200,164.064 397.380,164.200 397.600 C 164.336 397.820,165.517 398.000,166.824 398.000 C 168.141 398.000,169.200 398.178,169.200 398.400 C 169.200 398.628,170.389 398.800,171.967 398.800 C 173.824 398.800,174.788 398.964,174.900 399.300 C 175.144 400.032,224.856 400.032,225.100 399.300 C 225.212 398.964,226.176 398.800,228.033 398.800 C 229.611 398.800,230.800 398.628,230.800 398.400 C 230.800 398.178,231.859 398.000,233.176 398.000 C 234.483 398.000,235.664 397.820,235.800 397.600 C 235.936 397.380,237.016 397.200,238.200 397.200 C 239.384 397.200,240.464 397.020,240.600 396.800 C 240.736 396.580,241.647 396.400,242.624 396.400 C 243.601 396.400,244.400 396.220,244.400 396.000 C 244.400 395.780,245.120 395.600,246.000 395.600 C 246.880 395.600,247.600 395.420,247.600 395.200 C 247.600 394.980,248.320 394.800,249.200 394.800 C 250.080 394.800,250.800 394.620,250.800 394.400 C 250.800 394.180,251.520 394.000,252.400 394.000 C 253.280 394.000,254.000 393.820,254.000 393.600 C 254.000 393.380,254.540 393.200,255.200 393.200 C 255.860 393.200,256.400 393.020,256.400 392.800 C 256.400 392.580,257.120 392.400,258.000 392.400 C 258.880 392.400,259.600 392.220,259.600 392.000 C 259.600 391.780,260.140 391.600,260.800 391.600 C 261.460 391.600,262.000 391.420,262.000 391.200 C 262.000 390.980,262.439 390.800,262.976 390.800 C 263.513 390.800,264.064 390.620,264.200 390.400 C 264.336 390.180,264.799 390.000,265.229 390.000 C 265.659 390.000,266.413 389.792,266.905 389.538 C 268.831 388.542,269.217 388.400,269.995 388.400 C 270.438 388.400,270.800 388.220,270.800 388.000 C 270.800 387.780,271.239 387.600,271.776 387.600 C 272.313 387.600,272.864 387.420,273.000 387.200 C 273.136 386.980,273.597 386.800,274.024 386.800 C 274.451 386.800,274.800 386.620,274.800 386.400 C 274.800 386.180,275.340 386.000,276.000 386.000 C 276.660 386.000,277.200 385.820,277.200 385.600 C 277.200 385.380,277.560 385.200,278.000 385.200 C 278.440 385.200,278.800 385.020,278.800 384.800 C 278.800 384.580,279.160 384.400,279.600 384.400 C 280.040 384.400,280.400 384.220,280.400 384.000 C 280.400 383.780,280.839 383.600,281.376 383.600 C 281.913 383.600,282.464 383.420,282.600 383.200 C 282.736 382.980,283.197 382.800,283.624 382.800 C 284.051 382.800,284.400 382.620,284.400 382.400 C 284.400 382.180,284.760 382.000,285.200 382.000 C 285.640 382.000,286.000 381.820,286.000 381.600 C 286.000 381.380,286.360 381.200,286.800 381.200 C 287.240 381.200,287.600 381.020,287.600 380.800 C 287.600 380.580,287.960 380.400,288.400 380.400 C 288.840 380.400,289.200 380.220,289.200 380.000 C 289.200 379.780,289.560 379.600,290.000 379.600 C 290.440 379.600,290.800 379.420,290.800 379.200 C 290.800 378.980,291.160 378.800,291.600 378.800 C 292.040 378.800,292.400 378.620,292.400 378.400 C 292.400 378.180,292.760 378.000,293.200 378.000 C 293.640 378.000,294.000 377.820,294.000 377.600 C 294.000 377.380,294.360 377.200,294.800 377.200 C 295.240 377.200,295.600 377.020,295.600 376.800 C 295.600 376.580,295.878 376.400,296.217 376.400 C 296.556 376.400,297.220 376.040,297.692 375.600 C 298.164 375.160,298.787 374.800,299.075 374.800 C 299.364 374.800,299.600 374.620,299.600 374.400 C 299.600 374.180,299.960 374.000,300.400 374.000 C 300.840 374.000,301.200 373.820,301.200 373.600 C 301.200 373.380,301.478 373.200,301.817 373.200 C 302.156 373.200,302.820 372.840,303.292 372.400 C 303.764 371.960,304.387 371.600,304.675 371.600 C 304.964 371.600,305.200 371.420,305.200 371.200 C 305.200 370.980,305.520 370.800,305.912 370.800 C 306.303 370.800,306.883 370.440,307.200 370.000 C 307.517 369.560,308.057 369.200,308.400 369.200 C 308.743 369.200,309.283 368.840,309.600 368.400 C 309.917 367.960,310.457 367.600,310.800 367.600 C 311.143 367.600,311.683 367.240,312.000 366.800 C 312.317 366.360,312.857 366.000,313.200 366.000 C 313.543 366.000,314.083 365.640,314.400 365.200 C 314.717 364.760,315.162 364.400,315.388 364.399 C 315.615 364.399,316.430 363.859,317.200 363.200 C 317.970 362.541,318.785 362.001,319.012 362.001 C 319.238 362.000,319.683 361.640,320.000 361.200 C 320.317 360.760,320.769 360.400,321.004 360.400 C 321.240 360.400,322.228 359.680,323.200 358.800 C 324.172 357.920,325.110 357.200,325.284 357.200 C 325.457 357.200,326.341 356.480,327.248 355.600 C 328.155 354.720,329.063 354.000,329.268 354.000 C 329.472 354.000,330.846 352.785,332.322 351.300 C 333.798 349.815,335.724 348.062,336.603 347.405 C 338.514 345.976,346.031 338.438,347.535 336.442 C 348.121 335.665,349.815 333.793,351.300 332.284 C 352.785 330.774,354.000 329.358,354.000 329.138 C 354.000 328.918,354.720 328.046,355.600 327.200 C 356.480 326.354,357.200 325.469,357.200 325.232 C 357.200 324.995,357.920 324.059,358.800 323.152 C 359.680 322.245,360.400 321.295,360.400 321.040 C 360.400 320.785,360.760 320.317,361.200 320.000 C 361.640 319.683,362.000 319.220,362.000 318.971 C 362.000 318.722,362.540 317.954,363.200 317.263 C 363.860 316.572,364.400 315.802,364.400 315.551 C 364.400 315.299,364.716 314.803,365.103 314.447 C 365.489 314.091,366.060 313.305,366.370 312.700 C 366.681 312.095,367.085 311.600,367.268 311.600 C 367.450 311.600,367.600 311.280,367.600 310.888 C 367.600 310.497,367.960 309.917,368.400 309.600 C 368.840 309.283,369.200 308.743,369.200 308.400 C 369.200 308.057,369.560 307.517,370.000 307.200 C 370.440 306.883,370.800 306.343,370.800 306.000 C 370.800 305.657,371.160 305.117,371.600 304.800 C 372.040 304.483,372.400 303.903,372.400 303.512 C 372.400 303.120,372.580 302.800,372.800 302.800 C 373.020 302.800,373.200 302.522,373.200 302.183 C 373.200 301.844,373.560 301.180,374.000 300.708 C 374.440 300.236,374.800 299.613,374.800 299.325 C 374.800 299.036,374.980 298.800,375.200 298.800 C 375.420 298.800,375.600 298.440,375.600 298.000 C 375.600 297.560,375.780 297.200,376.000 297.200 C 376.220 297.200,376.400 296.840,376.400 296.400 C 376.400 295.960,376.580 295.600,376.800 295.600 C 377.020 295.600,377.200 295.240,377.200 294.800 C 377.200 294.360,377.380 294.000,377.600 294.000 C 377.820 294.000,378.000 293.640,378.000 293.200 C 378.000 292.760,378.180 292.400,378.400 292.400 C 378.620 292.400,378.800 292.040,378.800 291.600 C 378.800 291.160,378.980 290.800,379.200 290.800 C 379.420 290.800,379.600 290.440,379.600 290.000 C 379.600 289.560,379.780 289.200,380.000 289.200 C 380.220 289.200,380.400 288.840,380.400 288.400 C 380.400 287.960,380.580 287.600,380.800 287.600 C 381.020 287.600,381.200 287.240,381.200 286.800 C 381.200 286.360,381.380 286.000,381.600 286.000 C 381.820 286.000,382.000 285.640,382.000 285.200 C 382.000 284.760,382.180 284.400,382.400 284.400 C 382.620 284.400,382.800 284.040,382.800 283.600 C 382.800 283.160,382.980 282.800,383.200 282.800 C 383.420 282.800,383.600 282.451,383.600 282.024 C 383.600 281.597,383.780 281.136,384.000 281.000 C 384.220 280.864,384.400 280.313,384.400 279.776 C 384.400 279.239,384.580 278.800,384.800 278.800 C 385.020 278.800,385.200 278.440,385.200 278.000 C 385.200 277.560,385.380 277.200,385.600 277.200 C 385.820 277.200,386.000 276.761,386.000 276.224 C 386.000 275.687,386.180 275.136,386.400 275.000 C 386.620 274.864,386.800 274.403,386.800 273.976 C 386.800 273.549,386.980 273.200,387.200 273.200 C 387.420 273.200,387.600 272.761,387.600 272.224 C 387.600 271.687,387.780 271.136,388.000 271.000 C 388.220 270.864,388.400 270.403,388.400 269.976 C 388.400 269.549,388.580 269.200,388.800 269.200 C 389.020 269.200,389.200 268.660,389.200 268.000 C 389.200 267.340,389.380 266.800,389.600 266.800 C 389.820 266.800,390.000 266.260,390.000 265.600 C 390.000 264.940,390.180 264.400,390.400 264.400 C 390.620 264.400,390.800 263.860,390.800 263.200 C 390.800 262.540,390.980 262.000,391.200 262.000 C 391.420 262.000,391.600 261.471,391.600 260.824 C 391.600 260.177,391.780 259.536,392.000 259.400 C 392.220 259.264,392.400 258.533,392.400 257.776 C 392.400 257.019,392.580 256.400,392.800 256.400 C 393.020 256.400,393.200 255.871,393.200 255.224 C 393.200 254.577,393.380 253.936,393.600 253.800 C 393.820 253.664,394.000 252.933,394.000 252.176 C 394.000 251.419,394.180 250.800,394.400 250.800 C 394.620 250.800,394.800 250.080,394.800 249.200 C 394.800 248.320,394.980 247.600,395.200 247.600 C 395.420 247.600,395.600 246.891,395.600 246.024 C 395.600 245.157,395.780 244.336,396.000 244.200 C 396.220 244.064,396.400 243.153,396.400 242.176 C 396.400 241.199,396.580 240.400,396.800 240.400 C 397.020 240.400,397.200 239.421,397.200 238.224 C 397.200 237.027,397.380 235.936,397.600 235.800 C 397.820 235.664,398.000 234.663,398.000 233.576 C 398.000 232.489,398.180 231.600,398.400 231.600 C 398.633 231.600,398.800 230.278,398.800 228.433 C 398.800 226.256,398.956 225.215,399.300 225.100 C 399.693 224.969,399.800 219.511,399.800 199.600 C 399.800 179.689,399.693 174.231,399.300 174.100 C 398.970 173.990,398.800 173.069,398.800 171.390 C 398.800 169.992,398.620 168.736,398.400 168.600 C 398.180 168.464,398.000 167.283,398.000 165.976 C 398.000 164.659,397.822 163.600,397.600 163.600 C 397.380 163.600,397.200 162.700,397.200 161.600 C 397.200 160.500,397.020 159.600,396.800 159.600 C 396.580 159.600,396.400 158.891,396.400 158.024 C 396.400 157.157,396.220 156.336,396.000 156.200 C 395.780 156.064,395.600 155.153,395.600 154.176 C 395.600 153.199,395.420 152.400,395.200 152.400 C 394.980 152.400,394.800 151.680,394.800 150.800 C 394.800 149.920,394.620 149.200,394.400 149.200 C 394.180 149.200,394.000 148.581,394.000 147.824 C 394.000 147.067,393.820 146.336,393.600 146.200 C 393.380 146.064,393.200 145.423,393.200 144.776 C 393.200 144.129,393.020 143.600,392.800 143.600 C 392.580 143.600,392.400 142.981,392.400 142.224 C 392.400 141.467,392.220 140.736,392.000 140.600 C 391.780 140.464,391.600 139.823,391.600 139.176 C 391.600 138.529,391.420 138.000,391.200 138.000 C 390.980 138.000,390.800 137.460,390.800 136.800 C 390.800 136.140,390.620 135.600,390.400 135.600 C 390.180 135.600,390.000 135.060,390.000 134.400 C 390.000 133.740,389.820 133.200,389.600 133.200 C 389.380 133.200,389.200 132.838,389.200 132.395 C 389.200 131.952,389.020 131.232,388.800 130.795 C 388.580 130.358,388.220 129.642,388.000 129.205 C 387.780 128.768,387.600 128.048,387.600 127.605 C 387.600 127.162,387.420 126.800,387.200 126.800 C 386.980 126.800,386.800 126.361,386.800 125.824 C 386.800 125.287,386.620 124.736,386.400 124.600 C 386.180 124.464,386.000 124.003,386.000 123.576 C 386.000 123.149,385.820 122.800,385.600 122.800 C 385.380 122.800,385.200 122.451,385.200 122.024 C 385.200 121.597,385.020 121.136,384.800 121.000 C 384.580 120.864,384.400 120.313,384.400 119.776 C 384.400 119.239,384.220 118.800,384.000 118.800 C 383.780 118.800,383.600 118.440,383.600 118.000 C 383.600 117.560,383.420 117.200,383.200 117.200 C 382.980 117.200,382.800 116.840,382.800 116.400 C 382.800 115.960,382.620 115.600,382.400 115.600 C 382.180 115.600,382.000 115.240,382.000 114.800 C 382.000 114.360,381.820 114.000,381.600 114.000 C 381.380 114.000,381.200 113.747,381.200 113.438 C 381.200 112.772,379.532 109.459,379.100 109.267 C 378.935 109.193,378.800 108.788,378.800 108.367 C 378.800 107.945,378.620 107.600,378.400 107.600 C 378.180 107.600,378.000 107.240,378.000 106.800 C 378.000 106.360,377.820 106.000,377.600 106.000 C 377.380 106.000,377.200 105.640,377.200 105.200 C 377.200 104.760,377.020 104.400,376.800 104.400 C 376.580 104.400,376.400 104.040,376.400 103.600 C 376.400 103.160,376.220 102.800,376.000 102.800 C 375.780 102.800,375.600 102.564,375.600 102.275 C 375.600 101.987,375.240 101.364,374.800 100.892 C 374.360 100.420,374.000 99.756,374.000 99.417 C 374.000 99.078,373.820 98.800,373.600 98.800 C 373.380 98.800,373.200 98.440,373.200 98.000 C 373.200 97.560,373.020 97.200,372.800 97.200 C 372.580 97.200,372.400 96.964,372.400 96.675 C 372.400 96.387,372.040 95.764,371.600 95.292 C 371.160 94.820,370.800 94.196,370.800 93.905 C 370.800 93.614,370.440 93.117,370.000 92.800 C 369.560 92.483,369.200 91.943,369.200 91.600 C 369.200 91.257,368.840 90.717,368.400 90.400 C 367.960 90.083,367.600 89.543,367.600 89.200 C 367.600 88.857,367.240 88.317,366.800 88.000 C 366.360 87.683,366.000 87.143,366.000 86.800 C 366.000 86.457,365.640 85.917,365.200 85.600 C 364.760 85.283,364.400 84.743,364.400 84.400 C 364.400 84.057,364.040 83.517,363.600 83.200 C 363.160 82.883,362.800 82.420,362.800 82.171 C 362.800 81.922,362.260 81.154,361.600 80.463 C 360.940 79.772,360.400 79.026,360.400 78.804 C 360.400 78.582,359.680 77.659,358.800 76.752 C 357.920 75.845,357.200 74.931,357.200 74.720 C 357.200 74.510,356.480 73.646,355.600 72.800 C 354.720 71.954,354.000 71.082,354.000 70.862 C 354.000 70.642,352.740 69.186,351.200 67.628 C 349.660 66.069,348.400 64.633,348.400 64.435 C 348.400 63.941,336.974 52.468,335.013 50.993 C 334.141 50.337,332.547 48.945,331.473 47.900 C 330.398 46.855,329.343 46.000,329.128 46.000 C 328.913 46.000,328.046 45.280,327.200 44.400 C 326.354 43.520,325.500 42.800,325.302 42.800 C 325.104 42.800,323.978 41.900,322.800 40.800 C 321.622 39.700,320.460 38.800,320.218 38.800 C 319.975 38.800,319.517 38.440,319.200 38.000 C 318.883 37.560,318.391 37.200,318.108 37.200 C 317.825 37.200,317.028 36.660,316.337 36.000 C 315.646 35.340,314.838 34.800,314.541 34.800 C 314.243 34.800,314.000 34.650,314.000 34.468 C 314.000 34.285,313.505 33.880,312.900 33.568 C 312.295 33.255,311.451 32.685,311.025 32.300 C 310.598 31.915,310.096 31.600,309.908 31.600 C 309.720 31.600,309.180 31.240,308.708 30.800 C 308.236 30.360,307.613 30.000,307.325 30.000 C 307.036 30.000,306.800 29.820,306.800 29.600 C 306.800 29.380,306.440 29.200,306.000 29.200 C 305.560 29.200,305.200 29.020,305.200 28.800 C 305.200 28.580,304.964 28.400,304.675 28.400 C 304.387 28.400,303.764 28.040,303.292 27.600 C 302.820 27.160,302.156 26.800,301.817 26.800 C 301.478 26.800,301.200 26.620,301.200 26.400 C 301.200 26.180,300.880 26.000,300.488 26.000 C 300.097 26.000,299.517 25.640,299.200 25.200 C 298.883 24.760,298.303 24.400,297.912 24.400 C 297.520 24.400,297.200 24.220,297.200 24.000 C 297.200 23.780,296.855 23.600,296.433 23.600 C 296.012 23.600,295.607 23.465,295.533 23.300 C 295.460 23.135,294.635 22.595,293.700 22.100 C 292.765 21.605,291.235 20.795,290.300 20.300 C 289.365 19.805,288.540 19.265,288.467 19.100 C 288.393 18.935,287.909 18.800,287.390 18.800 C 286.872 18.800,286.336 18.620,286.200 18.400 C 286.064 18.180,285.603 18.000,285.176 18.000 C 284.749 18.000,284.400 17.820,284.400 17.600 C 284.400 17.380,284.040 17.200,283.600 17.200 C 283.160 17.200,282.800 17.020,282.800 16.800 C 282.800 16.580,282.440 16.400,282.000 16.400 C 281.560 16.400,281.200 16.220,281.200 16.000 C 281.200 15.780,280.660 15.600,280.000 15.600 C 279.340 15.600,278.800 15.420,278.800 15.200 C 278.800 14.980,278.440 14.800,278.000 14.800 C 277.560 14.800,277.200 14.620,277.200 14.400 C 277.200 14.180,276.660 14.000,276.000 14.000 C 275.340 14.000,274.800 13.820,274.800 13.600 C 274.800 13.380,274.440 13.200,274.000 13.200 C 273.560 13.200,273.200 13.020,273.200 12.800 C 273.200 12.580,272.660 12.400,272.000 12.400 C 271.340 12.400,270.800 12.220,270.800 12.000 C 270.800 11.780,270.451 11.600,270.024 11.600 C 269.597 11.600,269.136 11.420,269.000 11.200 C 268.864 10.980,268.313 10.800,267.776 10.800 C 267.239 10.800,266.800 10.620,266.800 10.400 C 266.800 10.180,266.260 10.000,265.600 10.000 C 264.940 10.000,264.400 9.820,264.400 9.600 C 264.400 9.380,263.860 9.200,263.200 9.200 C 262.540 9.200,262.000 9.020,262.000 8.800 C 262.000 8.580,261.471 8.400,260.824 8.400 C 260.177 8.400,259.536 8.220,259.400 8.000 C 259.264 7.780,258.533 7.600,257.776 7.600 C 257.019 7.600,256.400 7.420,256.400 7.200 C 256.400 6.980,255.860 6.800,255.200 6.800 C 254.540 6.800,254.000 6.620,254.000 6.400 C 254.000 6.180,253.280 6.000,252.400 6.000 C 251.520 6.000,250.800 5.820,250.800 5.600 C 250.800 5.380,250.080 5.200,249.200 5.200 C 248.320 5.200,247.600 5.020,247.600 4.800 C 247.600 4.580,246.880 4.400,246.000 4.400 C 245.120 4.400,244.400 4.220,244.400 4.000 C 244.400 3.780,243.500 3.600,242.400 3.600 C 241.300 3.600,240.400 3.420,240.400 3.200 C 240.400 2.980,239.500 2.800,238.400 2.800 C 237.300 2.800,236.400 2.620,236.400 2.400 C 236.400 2.180,235.421 2.000,234.224 2.000 C 233.027 2.000,231.936 1.820,231.800 1.600 C 231.664 1.380,230.138 1.200,228.410 1.200 C 226.299 1.200,225.213 1.040,225.105 0.714 C 224.944 0.233,187.802 -0.118,178.500 0.274 M292.419 44.651 C 297.835 46.727,301.304 49.509,304.421 54.276 C 308.054 59.832,307.800 54.653,307.800 123.200 L 307.800 183.400 257.243 183.502 C 220.213 183.576,206.540 183.483,206.143 183.153 C 205.313 182.464,205.356 105.015,206.189 101.088 C 207.165 96.480,210.743 91.234,214.166 89.391 C 214.955 88.966,215.600 88.479,215.600 88.309 C 215.600 88.139,191.679 88.000,162.442 88.000 C 102.296 88.000,106.849 88.242,101.650 84.770 C 85.470 73.965,89.529 49.669,108.400 44.373 C 110.885 43.675,114.957 43.646,200.600 43.721 L 290.200 43.800 292.419 44.651 M307.921 228.000 C 308.569 254.684,300.934 284.471,288.083 305.400 C 282.917 313.813,271.467 326.575,265.000 331.129 C 238.051 350.106,204.842 358.414,167.043 355.634 C 115.287 351.829,82.641 314.562,93.078 271.200 C 102.979 230.063,162.851 217.590,188.123 251.400 C 209.996 280.663,189.360 322.460,153.071 322.394 C 135.936 322.363,117.216 305.913,114.008 288.067 C 113.038 282.670,110.142 280.920,106.018 283.238 C 102.294 285.331,102.374 288.964,106.375 299.417 C 119.930 334.830,173.134 345.339,194.367 316.798 C 204.060 303.769,206.177 291.254,205.937 248.400 C 205.862 234.870,205.946 223.574,206.125 223.298 C 206.382 222.900,216.852 222.818,257.125 222.898 L 307.800 223.000 307.921 228.000 " stroke="none" fill="#fbfbfb" fill-rule="evenodd"></path><path id="path2" d="M110.315 44.328 C 109.696 44.574,216.184 44.552,267.800 44.296 C 279.240 44.239,248.640 44.162,199.800 44.124 C 150.960 44.087,110.692 44.179,110.315 44.328 M293.718 46.171 C 298.493 48.256,301.347 50.760,304.100 55.281 C 304.925 56.636,305.600 57.560,305.600 57.335 C 305.600 54.061,294.904 44.773,291.171 44.805 C 290.857 44.808,292.003 45.422,293.718 46.171 M102.293 47.414 C 101.472 47.972,100.800 48.525,100.800 48.642 C 100.800 48.759,101.295 48.510,101.900 48.088 C 102.505 47.667,103.360 47.120,103.800 46.873 C 104.240 46.626,104.417 46.419,104.193 46.412 C 103.969 46.405,103.114 46.856,102.293 47.414 M98.532 50.500 C 96.647 52.460,94.400 55.527,94.400 56.138 C 94.400 56.368,94.943 55.701,95.606 54.654 C 96.270 53.608,97.645 51.863,98.661 50.776 C 99.678 49.689,100.432 48.800,100.338 48.800 C 100.244 48.800,99.431 49.565,98.532 50.500 M305.844 59.000 C 306.173 60.471,306.402 60.790,306.394 59.767 C 306.391 59.345,306.205 58.730,305.982 58.400 C 305.685 57.962,305.648 58.124,305.844 59.000 M306.691 64.002 C 306.910 68.410,307.136 69.010,307.140 65.200 C 307.142 63.550,307.004 61.841,306.832 61.402 C 306.661 60.964,306.597 62.134,306.691 64.002 M92.252 62.500 C 91.931 63.698,91.985 68.821,92.328 69.685 C 92.478 70.062,92.600 68.397,92.600 65.985 C 92.600 61.190,92.601 61.199,92.252 62.500 M307.386 89.000 C 307.386 100.220,307.437 104.868,307.500 99.328 C 307.562 93.788,307.562 84.608,307.500 78.928 C 307.437 73.248,307.386 77.780,307.386 89.000 M92.993 72.200 C 93.525 74.749,95.550 78.267,97.843 80.626 C 99.953 82.797,99.733 82.498,96.447 78.728 C 95.933 78.138,94.889 76.158,94.127 74.328 C 93.366 72.497,92.855 71.540,92.993 72.200 M101.182 83.778 C 101.490 84.149,102.295 84.734,102.971 85.077 C 104.495 85.852,104.252 85.567,102.200 84.174 C 101.332 83.585,100.874 83.407,101.182 83.778 M106.800 86.782 C 107.130 87.005,107.745 87.191,108.167 87.194 C 109.190 87.202,108.871 86.973,107.400 86.644 C 106.524 86.448,106.362 86.485,106.800 86.782 M162.600 87.498 C 210.193 87.587,216.251 87.667,216.653 88.211 C 217.038 88.732,217.138 88.738,217.325 88.251 C 217.726 87.206,217.375 87.199,163.033 87.299 L 109.000 87.397 162.600 87.498 M213.400 90.504 C 210.861 92.361,207.199 97.531,207.200 99.256 C 207.200 99.555,207.745 98.649,208.410 97.243 C 209.216 95.541,210.487 93.835,212.213 92.143 C 213.640 90.744,214.760 89.606,214.703 89.613 C 214.647 89.620,214.060 90.021,213.400 90.504 M206.656 100.884 C 206.521 101.388,206.432 102.520,206.458 103.400 C 206.497 104.720,206.559 104.580,206.813 102.600 C 207.137 100.078,207.070 99.341,206.656 100.884 M307.297 160.300 L 307.200 182.800 257.033 182.800 C 223.172 182.800,206.801 182.667,206.663 182.390 C 206.552 182.165,206.506 182.210,206.563 182.490 C 206.714 183.235,307.131 183.446,307.416 182.702 C 307.521 182.426,307.559 172.210,307.500 160.000 L 307.393 137.800 307.297 160.300 M206.446 224.098 C 206.481 224.776,206.538 224.826,206.676 224.300 C 206.849 223.638,209.584 223.600,257.017 223.600 L 307.175 223.600 307.307 228.401 L 307.439 233.201 307.419 228.301 L 307.400 223.400 256.900 223.298 L 206.400 223.197 206.446 224.098 M206.588 254.200 C 206.588 267.620,206.638 273.052,206.700 266.271 C 206.761 259.490,206.761 248.510,206.700 241.871 C 206.638 235.232,206.588 240.780,206.588 254.200 M145.700 232.696 C 146.965 232.775,149.035 232.775,150.300 232.696 C 151.565 232.616,150.530 232.551,148.000 232.551 C 145.470 232.551,144.435 232.616,145.700 232.696 M138.000 233.202 C 137.400 233.395,138.040 233.437,139.600 233.306 C 141.030 233.186,142.275 233.023,142.367 232.944 C 142.689 232.665,138.988 232.884,138.000 233.202 M153.633 232.946 C 153.725 233.026,154.790 233.194,156.000 233.319 C 157.420 233.466,157.846 233.429,157.200 233.213 C 156.209 232.883,153.313 232.665,153.633 232.946 M133.600 234.000 C 132.256 234.431,133.708 234.431,135.400 234.000 C 136.478 233.726,136.498 233.694,135.600 233.687 C 135.050 233.683,134.150 233.824,133.600 234.000 M159.200 234.000 C 160.568 234.438,161.619 234.438,160.600 234.000 C 160.160 233.811,159.440 233.662,159.000 233.668 C 158.357 233.677,158.396 233.743,159.200 234.000 M130.200 234.800 C 129.181 235.238,130.232 235.238,131.600 234.800 C 132.404 234.543,132.443 234.477,131.800 234.468 C 131.360 234.462,130.640 234.611,130.200 234.800 M162.600 234.800 C 163.040 234.989,163.670 235.144,164.000 235.144 C 164.378 235.144,164.304 235.017,163.800 234.800 C 163.360 234.611,162.730 234.456,162.400 234.456 C 162.022 234.456,162.096 234.583,162.600 234.800 M306.641 239.542 C 306.482 242.041,306.434 244.168,306.536 244.269 C 306.788 244.521,307.335 236.204,307.110 235.536 C 307.011 235.241,306.800 237.044,306.641 239.542 M120.900 238.234 C 120.185 238.546,119.600 238.894,119.600 239.007 C 119.600 239.215,122.406 238.127,122.746 237.787 C 123.086 237.447,122.220 237.657,120.900 238.234 M173.633 239.325 C 175.440 240.680,179.200 243.189,179.200 243.040 C 179.200 242.764,174.173 239.200,173.783 239.200 C 173.609 239.200,173.542 239.256,173.633 239.325 M114.205 242.037 C 109.868 244.788,104.126 250.273,101.657 254.023 L 100.751 255.400 101.876 254.047 C 106.593 248.371,110.374 244.839,114.350 242.393 C 116.129 241.298,116.732 240.800,116.278 240.800 C 116.211 240.800,115.279 241.357,114.205 242.037 M182.463 246.231 C 184.148 247.974,186.100 250.030,186.801 250.800 C 187.502 251.570,187.227 251.120,186.190 249.800 C 185.153 248.480,183.201 246.424,181.852 245.231 C 179.517 243.165,179.547 243.213,182.463 246.231 M305.833 248.336 C 305.671 250.171,305.626 251.759,305.732 251.866 C 305.996 252.129,306.534 246.200,306.307 245.532 C 306.208 245.239,305.994 246.501,305.833 248.336 M305.046 254.646 C 304.900 255.893,304.859 256.993,304.957 257.090 C 305.054 257.188,305.261 256.254,305.415 255.015 C 305.570 253.777,305.610 252.677,305.505 252.571 C 305.399 252.466,305.193 253.399,305.046 254.646 M190.600 256.800 C 191.157 257.900,191.703 258.800,191.813 258.800 C 191.923 258.800,191.557 257.900,191.000 256.800 C 190.443 255.700,189.897 254.800,189.787 254.800 C 189.677 254.800,190.043 255.700,190.600 256.800 M99.014 257.835 C 98.641 258.404,98.405 258.938,98.489 259.022 C 98.573 259.107,98.958 258.641,99.344 257.988 C 100.206 256.528,99.948 256.409,99.014 257.835 M304.222 259.822 C 304.072 260.625,304.028 261.362,304.126 261.460 C 304.224 261.557,304.427 260.981,304.578 260.178 C 304.728 259.375,304.772 258.638,304.674 258.540 C 304.576 258.443,304.373 259.019,304.222 259.822 M193.061 261.600 C 193.517 263.402,194.452 265.603,194.184 264.244 C 194.059 263.608,193.698 262.528,193.382 261.844 C 192.951 260.908,192.871 260.848,193.061 261.600 M303.400 263.600 C 303.248 264.291,303.207 264.941,303.309 265.042 C 303.411 265.144,303.609 264.653,303.750 263.950 C 303.891 263.247,303.931 262.598,303.841 262.508 C 303.750 262.417,303.552 262.909,303.400 263.600 M194.468 266.000 C 194.488 267.039,195.118 268.746,195.132 267.800 C 195.138 267.360,194.989 266.640,194.800 266.200 C 194.589 265.710,194.461 265.632,194.468 266.000 M302.232 268.632 C 301.840 270.293,301.607 271.741,301.715 271.848 C 301.822 271.955,302.216 270.669,302.589 268.989 C 302.963 267.310,303.196 265.862,303.106 265.773 C 303.017 265.684,302.623 266.970,302.232 268.632 M94.649 267.015 C 94.512 267.373,94.415 267.966,94.434 268.333 C 94.453 268.700,94.627 268.469,94.821 267.820 C 95.198 266.558,95.065 265.933,94.649 267.015 M195.287 269.400 C 195.291 269.840,195.432 270.740,195.600 271.400 C 195.874 272.478,195.906 272.498,195.913 271.600 C 195.917 271.050,195.776 270.150,195.600 269.600 C 195.349 268.816,195.281 268.773,195.287 269.400 M93.829 270.229 C 93.681 270.815,93.638 271.372,93.732 271.466 C 93.827 271.560,94.024 271.158,94.171 270.571 C 94.319 269.985,94.362 269.428,94.268 269.334 C 94.173 269.240,93.976 269.642,93.829 270.229 M93.000 273.200 C 92.848 273.891,92.807 274.541,92.909 274.642 C 93.011 274.744,93.209 274.253,93.350 273.550 C 93.683 271.883,93.360 271.560,93.000 273.200 M301.029 273.429 C 300.881 274.015,300.838 274.572,300.932 274.666 C 301.027 274.760,301.224 274.358,301.371 273.771 C 301.519 273.185,301.562 272.628,301.468 272.534 C 301.373 272.440,301.176 272.842,301.029 273.429 M196.109 275.200 C 196.109 276.190,196.187 276.595,196.282 276.100 C 196.378 275.605,196.378 274.795,196.282 274.300 C 196.187 273.805,196.109 274.210,196.109 275.200 M92.256 276.884 C 92.121 277.388,92.028 278.250,92.049 278.800 C 92.072 279.389,92.231 279.071,92.436 278.025 C 92.803 276.152,92.673 275.327,92.256 276.884 M196.520 279.600 C 196.520 280.810,196.595 281.305,196.687 280.700 C 196.778 280.095,196.778 279.105,196.687 278.500 C 196.595 277.895,196.520 278.390,196.520 279.600 M91.394 284.538 C 91.238 286.624,91.191 288.571,91.290 288.865 C 91.389 289.159,91.598 287.535,91.756 285.255 C 91.914 282.975,91.961 281.028,91.861 280.927 C 91.761 280.827,91.551 282.452,91.394 284.538 M205.812 284.212 C 205.655 285.888,205.611 287.344,205.714 287.448 C 205.818 287.551,206.031 286.264,206.188 284.588 C 206.345 282.912,206.389 281.456,206.286 281.352 C 206.182 281.249,205.969 282.536,205.812 284.212 M105.800 282.344 C 105.140 282.752,104.243 283.516,103.806 284.043 C 103.132 284.856,103.192 284.838,104.206 283.922 C 104.863 283.329,106.030 282.571,106.800 282.238 C 107.570 281.904,107.930 281.625,107.600 281.617 C 107.270 281.609,106.460 281.937,105.800 282.344 M111.034 282.169 C 112.399 282.763,113.983 284.551,114.032 285.554 C 114.053 285.995,114.129 286.036,114.271 285.682 C 114.740 284.511,111.849 281.565,110.281 281.616 C 110.017 281.624,110.355 281.873,111.034 282.169 M196.093 283.200 C 196.093 283.970,196.175 284.285,196.276 283.900 C 196.376 283.515,196.376 282.885,196.276 282.500 C 196.175 282.115,196.093 282.430,196.093 283.200 M195.422 287.022 C 195.272 287.825,195.228 288.562,195.326 288.660 C 195.424 288.757,195.627 288.181,195.778 287.378 C 195.928 286.575,195.972 285.838,195.874 285.740 C 195.776 285.643,195.573 286.219,195.422 287.022 M114.475 287.400 C 114.465 288.060,114.611 288.960,114.800 289.400 L 115.144 290.200 115.125 289.400 C 115.114 288.960,114.968 288.060,114.800 287.400 L 114.495 286.200 114.475 287.400 M102.480 289.400 C 102.480 289.840,102.624 290.650,102.800 291.200 C 103.054 291.992,103.120 292.033,103.120 291.400 C 103.120 290.960,102.976 290.150,102.800 289.600 C 102.546 288.808,102.480 288.767,102.480 289.400 M295.072 290.219 C 294.132 292.189,294.264 292.524,295.247 290.662 C 295.693 289.816,295.987 289.054,295.901 288.967 C 295.814 288.881,295.441 289.444,295.072 290.219 M194.629 290.229 C 194.481 290.815,194.438 291.372,194.532 291.466 C 194.627 291.560,194.824 291.158,194.971 290.571 C 195.119 289.985,195.162 289.428,195.068 289.334 C 194.973 289.240,194.776 289.642,194.629 290.229 M91.724 291.800 C 91.726 293.120,91.801 293.612,91.890 292.893 C 91.979 292.174,91.977 291.094,91.886 290.493 C 91.795 289.892,91.722 290.480,91.724 291.800 M115.206 291.033 C 115.209 291.455,115.395 292.070,115.618 292.400 C 115.915 292.838,115.952 292.676,115.756 291.800 C 115.427 290.329,115.198 290.010,115.206 291.033 M293.472 293.819 C 292.532 295.789,292.664 296.124,293.647 294.262 C 294.093 293.416,294.387 292.654,294.301 292.567 C 294.214 292.481,293.841 293.044,293.472 293.819 M116.812 295.310 C 116.707 298.092,126.215 310.449,130.917 313.641 C 131.623 314.120,131.214 313.632,130.010 312.556 C 124.797 307.901,121.377 303.631,118.512 298.200 C 117.583 296.440,116.818 295.139,116.812 295.310 M203.429 297.829 C 203.281 298.415,203.238 298.972,203.332 299.066 C 203.427 299.160,203.624 298.758,203.771 298.171 C 203.919 297.585,203.962 297.028,203.868 296.934 C 203.773 296.840,203.576 297.242,203.429 297.829 M189.973 301.046 C 188.889 302.942,186.902 305.587,184.074 308.900 C 183.745 309.285,183.588 309.600,183.725 309.600 C 184.182 309.600,189.514 302.724,190.589 300.748 C 192.060 298.046,191.549 298.293,189.973 301.046 M92.856 300.000 C 92.856 300.330,93.011 300.960,93.200 301.400 C 93.417 301.904,93.544 301.978,93.544 301.600 C 93.544 301.270,93.389 300.640,93.200 300.200 C 92.983 299.696,92.856 299.622,92.856 300.000 M202.600 300.800 C 202.448 301.491,202.407 302.141,202.509 302.242 C 202.611 302.344,202.809 301.853,202.950 301.150 C 203.283 299.483,202.960 299.160,202.600 300.800 M289.400 301.600 C 289.059 302.260,288.869 302.800,288.979 302.800 C 289.089 302.800,289.459 302.260,289.800 301.600 C 290.141 300.940,290.331 300.400,290.221 300.400 C 290.111 300.400,289.741 300.940,289.400 301.600 M106.400 301.753 C 106.400 302.182,107.590 304.400,107.821 304.400 C 107.931 304.400,107.723 303.815,107.359 303.100 C 106.617 301.640,106.400 301.336,106.400 301.753 M93.656 302.800 C 93.656 303.130,93.811 303.760,94.000 304.200 C 94.217 304.704,94.344 304.778,94.344 304.400 C 94.344 304.070,94.189 303.440,94.000 303.000 C 93.783 302.496,93.656 302.422,93.656 302.800 M201.644 304.044 C 201.398 304.751,201.266 305.400,201.352 305.485 C 201.438 305.571,201.709 305.062,201.956 304.356 C 202.202 303.649,202.334 303.000,202.248 302.915 C 202.162 302.829,201.891 303.338,201.644 304.044 M285.928 307.183 C 284.500 309.373,283.483 311.072,283.668 310.958 C 284.274 310.583,289.058 303.200,288.694 303.200 C 288.601 303.200,287.356 304.992,285.928 307.183 M108.600 306.000 C 108.941 306.660,109.311 307.200,109.421 307.200 C 109.531 307.200,109.341 306.660,109.000 306.000 C 108.659 305.340,108.289 304.800,108.179 304.800 C 108.069 304.800,108.259 305.340,108.600 306.000 M94.619 306.200 C 94.886 307.596,97.244 312.890,97.489 312.644 C 97.581 312.552,97.258 311.697,96.771 310.743 C 96.285 309.790,95.550 308.107,95.138 307.005 C 94.727 305.902,94.493 305.540,94.619 306.200 M200.465 307.017 C 199.795 308.488,199.923 308.802,200.647 307.465 C 200.986 306.840,201.188 306.254,201.096 306.163 C 201.005 306.071,200.721 306.456,200.465 307.017 M110.051 308.400 C 110.999 310.400,115.755 316.087,118.741 318.791 C 121.685 321.457,126.725 325.249,126.203 324.405 C 126.064 324.180,124.879 323.269,123.570 322.380 C 122.261 321.491,119.696 319.286,117.870 317.482 C 114.979 314.624,113.571 312.935,110.288 308.386 L 109.577 307.400 110.051 308.400 M181.381 311.300 L 179.800 313.000 181.500 311.419 C 182.435 310.549,183.200 309.784,183.200 309.719 C 183.200 309.416,182.852 309.719,181.381 311.300 M281.774 313.100 C 281.157 313.925,279.588 315.860,278.287 317.400 L 275.922 320.200 278.350 317.620 C 280.651 315.176,283.456 311.600,283.072 311.600 C 282.975 311.600,282.390 312.275,281.774 313.100 M196.179 315.095 C 195.102 316.795,192.965 319.539,191.429 321.193 L 188.637 324.200 191.138 321.800 C 193.474 319.559,198.690 312.557,198.309 312.175 C 198.214 312.081,197.256 313.395,196.179 315.095 M178.081 313.772 C 176.223 315.085,175.962 315.461,177.531 314.562 C 178.263 314.143,179.050 313.575,179.280 313.300 C 179.871 312.593,179.593 312.702,178.081 313.772 M173.800 316.417 C 172.700 317.064,171.964 317.595,172.165 317.597 C 172.606 317.601,176.000 315.642,176.000 315.383 C 176.000 315.122,176.004 315.120,173.800 316.417 M99.608 317.200 C 102.026 321.878,108.288 329.636,112.830 333.579 C 115.673 336.048,115.638 335.997,112.000 332.372 C 107.107 327.499,105.085 325.073,102.021 320.400 C 99.399 316.401,98.753 315.545,99.608 317.200 M136.000 316.996 C 136.000 317.270,138.449 318.484,138.632 318.301 C 138.719 318.214,138.162 317.844,137.395 317.478 C 136.628 317.112,136.000 316.895,136.000 316.996 M146.800 321.193 C 147.788 321.516,151.089 321.735,150.767 321.456 C 150.675 321.376,149.520 321.211,148.200 321.088 C 146.709 320.949,146.179 320.989,146.800 321.193 M158.200 321.200 L 155.800 321.466 158.000 321.485 C 159.210 321.496,160.740 321.368,161.400 321.200 C 162.938 320.809,161.737 320.809,158.200 321.200 M273.796 322.004 C 273.166 322.662,272.782 323.200,272.943 323.200 C 273.356 323.200,275.322 321.188,275.113 320.980 C 275.019 320.886,274.426 321.346,273.796 322.004 M153.105 321.883 C 153.602 321.979,154.322 321.975,154.705 321.875 C 155.087 321.775,154.680 321.696,153.800 321.701 C 152.920 321.705,152.607 321.787,153.105 321.883 M187.389 324.769 C 186.955 325.192,185.070 326.476,183.200 327.623 C 181.330 328.769,180.145 329.587,180.566 329.441 C 181.800 329.012,187.022 325.659,187.806 324.794 C 188.725 323.778,188.424 323.760,187.389 324.769 M126.800 324.979 C 126.800 325.089,127.340 325.459,128.000 325.800 C 128.660 326.141,129.200 326.331,129.200 326.221 C 129.200 326.111,128.660 325.741,128.000 325.400 C 127.340 325.059,126.800 324.869,126.800 324.979 M268.400 327.271 C 266.369 329.173,266.238 329.354,267.800 328.098 C 269.666 326.596,271.530 324.778,271.162 324.817 C 271.073 324.827,269.830 325.931,268.400 327.271 M137.444 330.182 C 138.128 330.498,139.208 330.859,139.844 330.984 C 140.833 331.179,140.798 331.133,139.600 330.663 C 137.440 329.816,135.913 329.476,137.444 330.182 M177.200 330.420 C 176.210 330.825,175.670 331.162,176.000 331.168 C 176.330 331.174,177.320 330.838,178.200 330.422 C 180.243 329.455,179.561 329.453,177.200 330.420 M263.985 330.832 L 262.600 332.063 263.888 331.213 C 265.030 330.459,265.893 329.600,265.508 329.600 C 265.432 329.600,264.747 330.154,263.985 330.832 M142.000 331.600 C 143.368 332.038,144.419 332.038,143.400 331.600 C 142.960 331.411,142.240 331.262,141.800 331.268 C 141.157 331.277,141.196 331.343,142.000 331.600 M259.000 334.249 C 257.240 335.459,254.495 337.175,252.900 338.061 C 251.305 338.947,250.000 339.763,250.000 339.873 C 250.000 340.419,261.666 333.264,262.210 332.384 C 262.566 331.808,262.456 331.872,259.000 334.249 M148.500 333.076 C 148.885 333.176,149.515 333.176,149.900 333.076 C 150.285 332.975,149.970 332.893,149.200 332.893 C 148.430 332.893,148.115 332.975,148.500 333.076 M165.800 333.200 C 164.439 333.444,164.379 333.492,165.400 333.520 C 166.060 333.539,167.320 333.405,168.200 333.223 C 170.293 332.790,168.202 332.770,165.800 333.200 M156.100 333.896 C 157.365 333.975,159.435 333.975,160.700 333.896 C 161.965 333.816,160.930 333.751,158.400 333.751 C 155.870 333.751,154.835 333.816,156.100 333.896 M116.017 336.302 C 116.049 336.880,124.800 342.780,124.800 342.224 C 124.800 342.112,124.291 341.757,123.669 341.436 C 123.046 341.114,121.066 339.760,119.269 338.427 C 117.471 337.094,116.008 336.138,116.017 336.302 M244.600 342.378 C 243.720 342.795,243.113 343.150,243.251 343.168 C 243.640 343.218,246.400 342.014,246.400 341.795 C 246.400 341.527,246.399 341.527,244.600 342.378 M125.800 342.996 C 126.694 343.739,129.228 345.109,128.600 344.510 C 128.380 344.300,127.480 343.724,126.600 343.230 C 125.720 342.735,125.360 342.630,125.800 342.996 M130.400 345.600 C 131.170 346.022,131.980 346.366,132.200 346.366 C 132.420 346.366,131.970 346.022,131.200 345.600 C 130.430 345.178,129.620 344.834,129.400 344.834 C 129.180 344.834,129.630 345.178,130.400 345.600 M136.000 348.200 C 136.550 348.514,137.180 348.772,137.400 348.772 C 137.620 348.772,137.350 348.514,136.800 348.200 C 136.250 347.886,135.620 347.628,135.400 347.628 C 135.180 347.628,135.450 347.886,136.000 348.200 M139.800 349.600 C 140.900 350.006,142.070 350.338,142.400 350.338 C 142.730 350.338,142.100 350.006,141.000 349.600 C 139.900 349.194,138.730 348.862,138.400 348.862 C 138.070 348.862,138.700 349.194,139.800 349.600 M226.200 349.200 C 225.696 349.417,225.622 349.544,226.000 349.544 C 226.330 349.544,226.960 349.389,227.400 349.200 C 227.904 348.983,227.978 348.856,227.600 348.856 C 227.270 348.856,226.640 349.011,226.200 349.200 M223.000 350.000 C 221.911 350.277,221.893 350.307,222.800 350.325 C 223.350 350.335,224.160 350.189,224.600 350.000 C 225.586 349.576,224.666 349.576,223.000 350.000 M143.800 350.800 C 144.240 350.989,144.870 351.144,145.200 351.144 C 145.578 351.144,145.504 351.017,145.000 350.800 C 144.560 350.611,143.930 350.456,143.600 350.456 C 143.222 350.456,143.296 350.583,143.800 350.800 M219.600 350.800 C 218.796 351.057,218.757 351.123,219.400 351.132 C 219.840 351.138,220.560 350.989,221.000 350.800 C 222.019 350.362,220.968 350.362,219.600 350.800 M216.000 351.600 C 215.196 351.857,215.157 351.923,215.800 351.932 C 216.240 351.938,216.960 351.789,217.400 351.600 C 218.419 351.162,217.368 351.162,216.000 351.600 M152.400 353.180 C 153.399 353.520,155.882 353.732,155.567 353.451 C 155.475 353.369,154.500 353.199,153.400 353.072 C 152.051 352.916,151.726 352.951,152.400 353.180 M207.000 353.200 L 205.400 353.486 206.800 353.496 C 207.570 353.501,208.740 353.368,209.400 353.200 C 211.028 352.786,209.313 352.786,207.000 353.200 M157.000 353.980 C 158.234 354.315,161.064 354.518,160.767 354.250 C 160.675 354.168,159.520 354.000,158.200 353.877 C 156.622 353.730,156.211 353.765,157.000 353.980 M200.800 354.000 L 198.600 354.270 200.400 354.312 C 201.390 354.335,202.920 354.205,203.800 354.023 C 205.820 353.605,204.128 353.592,200.800 354.000 M163.000 354.806 C 165.040 355.136,169.869 355.319,169.567 355.054 C 169.475 354.973,167.510 354.812,165.200 354.695 C 162.368 354.551,161.651 354.587,163.000 354.806 M195.305 354.687 C 195.914 354.779,196.814 354.777,197.305 354.682 C 197.797 354.587,197.300 354.511,196.200 354.514 C 195.100 354.517,194.697 354.595,195.305 354.687 M189.891 355.089 C 190.601 355.177,191.861 355.179,192.691 355.092 C 193.521 355.005,192.940 354.933,191.400 354.931 C 189.860 354.929,189.181 355.000,189.891 355.089 M175.121 355.499 C 177.388 355.570,180.988 355.570,183.121 355.498 C 185.255 355.426,183.400 355.368,179.000 355.368 C 174.600 355.368,172.855 355.427,175.121 355.499 " stroke="none" fill="#727ca4" fill-rule="evenodd"></path><path id="path3" d="M98.400 81.800 C 99.146 82.570,99.847 83.200,99.957 83.200 C 100.067 83.200,99.546 82.570,98.800 81.800 C 98.054 81.030,97.353 80.400,97.243 80.400 C 97.133 80.400,97.654 81.030,98.400 81.800 M163.577 87.899 C 205.004 87.981,216.230 88.109,216.508 88.501 C 216.768 88.869,216.818 88.843,216.697 88.400 C 216.553 87.871,210.330 87.800,163.767 87.798 L 111.000 87.796 163.577 87.899 M206.095 143.276 C 206.043 164.988,206.135 182.836,206.300 182.938 C 206.572 183.106,206.569 155.276,206.294 118.000 C 206.237 110.190,206.147 121.564,206.095 143.276 M307.381 123.600 C 307.381 131.630,307.434 134.915,307.499 130.900 C 307.565 126.885,307.565 120.315,307.499 116.300 C 307.434 112.285,307.381 115.570,307.381 123.600 M307.786 162.600 C 307.786 173.600,307.837 178.042,307.900 172.472 C 307.963 166.902,307.962 157.902,307.900 152.472 C 307.837 147.042,307.785 151.600,307.786 162.600 M206.146 227.400 C 206.147 229.600,206.214 230.449,206.295 229.287 C 206.376 228.124,206.376 226.324,206.293 225.287 C 206.211 224.249,206.145 225.200,206.146 227.400 M307.709 225.600 C 307.709 226.590,307.787 226.995,307.882 226.500 C 307.978 226.005,307.978 225.195,307.882 224.700 C 307.787 224.205,307.709 224.610,307.709 225.600 M180.800 244.125 C 180.800 244.194,181.385 244.779,182.100 245.425 L 183.400 246.600 182.225 245.300 C 181.130 244.088,180.800 243.816,180.800 244.125 M104.581 250.100 L 103.000 251.800 104.700 250.219 C 106.281 248.748,106.584 248.400,106.281 248.400 C 106.216 248.400,105.451 249.165,104.581 250.100 M196.501 276.200 C 196.505 277.080,196.587 277.393,196.683 276.895 C 196.779 276.398,196.775 275.678,196.675 275.295 C 196.575 274.913,196.496 275.320,196.501 276.200 M206.114 279.400 C 206.117 280.500,206.195 280.903,206.287 280.295 C 206.379 279.686,206.377 278.786,206.282 278.295 C 206.187 277.803,206.111 278.300,206.114 279.400 M91.293 290.400 C 91.293 291.170,91.375 291.485,91.476 291.100 C 91.576 290.715,91.576 290.085,91.476 289.700 C 91.375 289.315,91.293 289.630,91.293 290.400 M182.175 310.900 L 181.000 312.200 182.300 311.025 C 183.512 309.930,183.784 309.600,183.475 309.600 C 183.406 309.600,182.821 310.185,182.175 310.900 M150.500 321.876 C 150.885 321.976,151.515 321.976,151.900 321.876 C 152.285 321.775,151.970 321.693,151.200 321.693 C 150.430 321.693,150.115 321.775,150.500 321.876 " stroke="none" fill="#848cae" fill-rule="evenodd"></path><path id="path4" d="M155.100 43.900 C 179.575 43.957,219.625 43.957,244.100 43.900 C 268.575 43.843,248.550 43.796,199.600 43.796 C 150.650 43.796,130.625 43.843,155.100 43.900 M108.200 44.400 C 107.181 44.838,108.232 44.838,109.600 44.400 C 110.404 44.143,110.443 44.077,109.800 44.068 C 109.360 44.062,108.640 44.211,108.200 44.400 M290.000 44.400 C 291.368 44.838,292.419 44.838,291.400 44.400 C 290.960 44.211,290.240 44.062,289.800 44.068 C 289.157 44.077,289.196 44.143,290.000 44.400 M104.400 45.690 C 99.342 48.002,92.062 56.387,92.909 58.926 C 92.982 59.147,93.377 58.444,93.785 57.364 C 95.602 52.556,100.538 47.602,105.300 45.807 C 106.345 45.414,107.200 45.026,107.200 44.946 C 107.200 44.620,106.101 44.913,104.400 45.690 M295.000 46.140 C 300.084 48.629,304.543 53.688,306.334 59.000 C 307.260 61.747,307.486 61.476,306.632 58.641 C 304.995 53.200,298.275 46.393,293.200 45.036 C 292.650 44.889,293.460 45.386,295.000 46.140 M92.200 60.800 C 92.048 61.491,92.007 62.141,92.109 62.242 C 92.211 62.344,92.409 61.853,92.550 61.150 C 92.691 60.447,92.731 59.798,92.641 59.708 C 92.550 59.617,92.352 60.109,92.200 60.800 M307.507 99.800 C 307.566 120.920,307.666 139.280,307.730 140.600 C 307.794 141.920,307.861 125.720,307.880 104.600 C 307.898 83.480,307.798 65.120,307.657 63.800 C 307.515 62.480,307.448 78.680,307.507 99.800 M91.740 66.000 C 91.740 67.870,91.809 68.635,91.893 67.700 C 91.977 66.765,91.977 65.235,91.893 64.300 C 91.809 63.365,91.740 64.130,91.740 66.000 M92.255 71.200 C 93.385 77.734,100.117 85.456,106.000 86.966 C 106.550 87.107,105.920 86.694,104.600 86.049 C 99.121 83.369,94.835 78.491,93.004 72.853 C 92.459 71.174,92.122 70.430,92.255 71.200 M108.000 87.580 C 108.999 87.920,111.482 88.132,111.167 87.851 C 111.075 87.769,110.100 87.599,109.000 87.472 C 107.651 87.316,107.326 87.351,108.000 87.580 M213.336 89.947 C 210.370 92.096,206.358 97.905,206.419 99.964 C 206.429 100.314,206.761 99.772,207.157 98.761 C 208.570 95.149,211.331 91.631,214.409 89.521 C 214.954 89.148,215.292 88.833,215.160 88.821 C 215.028 88.809,214.207 89.316,213.336 89.947 M205.854 102.656 C 205.295 106.740,205.567 182.674,206.143 183.153 C 207.078 183.929,307.684 183.580,307.897 182.800 C 308.019 182.354,307.970 182.329,307.706 182.702 C 307.424 183.100,296.956 183.182,256.775 183.102 L 206.200 183.000 206.200 141.900 C 206.200 119.295,206.179 100.800,206.154 100.800 C 206.129 100.800,205.994 101.635,205.854 102.656 M206.125 223.298 C 205.946 223.574,205.857 235.050,205.927 248.800 C 206.044 271.577,205.832 280.015,204.954 287.600 C 204.814 288.810,204.813 289.694,204.951 289.565 C 205.966 288.619,206.452 274.429,206.328 249.400 L 206.200 223.400 256.775 223.298 C 296.956 223.218,307.424 223.300,307.706 223.698 C 307.970 224.071,308.019 224.046,307.897 223.600 C 307.672 222.774,206.657 222.475,206.125 223.298 M307.467 234.136 C 307.287 238.061,307.224 241.357,307.327 241.460 C 307.582 241.716,308.108 230.597,307.935 228.600 C 307.858 227.720,307.648 230.211,307.467 234.136 M140.400 232.365 C 139.190 232.494,142.430 232.600,147.600 232.600 C 152.770 232.600,156.100 232.481,155.000 232.335 C 152.603 232.017,143.482 232.036,140.400 232.365 M135.200 233.079 C 133.145 233.429,127.971 234.904,128.155 235.089 C 128.260 235.194,128.994 235.066,129.786 234.805 C 130.578 234.543,132.795 234.003,134.713 233.603 C 137.722 232.976,138.082 232.589,135.200 233.079 M159.986 233.639 C 161.628 234.063,163.158 234.344,163.386 234.265 C 163.834 234.109,158.378 232.778,157.521 232.834 C 157.234 232.853,158.344 233.215,159.986 233.639 M164.800 234.867 C 165.350 235.126,167.420 236.064,169.400 236.952 C 179.501 241.480,187.119 248.758,192.060 258.600 C 193.386 261.240,194.341 262.950,194.182 262.400 C 191.050 251.521,176.278 237.570,164.800 234.650 L 163.800 234.396 164.800 234.867 M123.596 236.574 C 115.300 239.632,105.130 247.703,100.122 255.200 C 97.860 258.586,96.655 260.789,96.920 261.053 C 97.019 261.152,97.592 260.280,98.195 259.116 C 103.212 249.426,111.581 242.310,124.800 236.494 C 126.185 235.885,125.308 235.943,123.596 236.574 M306.590 246.190 C 306.432 248.305,306.392 250.126,306.502 250.236 C 306.612 250.346,306.832 248.705,306.990 246.590 C 307.149 244.476,307.189 242.655,307.079 242.545 C 306.969 242.435,306.749 244.076,306.590 246.190 M305.800 253.200 C 305.644 254.547,305.606 255.739,305.716 255.849 C 305.826 255.959,306.044 254.947,306.200 253.600 C 306.356 252.253,306.394 251.061,306.284 250.951 C 306.174 250.841,305.956 251.853,305.800 253.200 M304.982 258.182 C 304.829 259.202,304.794 260.127,304.904 260.237 C 305.014 260.347,305.229 259.602,305.382 258.582 C 305.535 257.561,305.570 256.637,305.460 256.527 C 305.350 256.417,305.135 257.161,304.982 258.182 M304.178 262.178 C 304.027 262.981,303.994 263.727,304.104 263.837 C 304.214 263.947,304.427 263.381,304.578 262.578 C 304.728 261.775,304.762 261.028,304.652 260.918 C 304.542 260.808,304.328 261.375,304.178 262.178 M95.003 264.883 C 94.099 267.108,92.792 271.627,92.829 272.399 C 92.844 272.729,93.268 271.560,93.771 269.800 C 94.273 268.040,94.983 265.897,95.347 265.039 C 95.712 264.180,95.941 263.407,95.855 263.322 C 95.770 263.237,95.386 263.939,95.003 264.883 M194.434 264.200 C 194.422 264.640,194.587 265.270,194.800 265.600 C 195.314 266.395,195.314 265.396,194.800 264.200 L 194.456 263.400 194.434 264.200 M303.402 265.671 C 303.252 266.402,302.768 268.498,302.327 270.330 C 301.886 272.161,301.616 273.749,301.725 273.859 C 301.835 273.969,302.412 271.965,303.007 269.407 C 303.602 266.849,303.996 264.662,303.882 264.549 C 303.769 264.436,303.553 264.941,303.402 265.671 M195.280 267.000 C 195.280 267.440,195.424 268.250,195.600 268.800 C 195.854 269.592,195.920 269.633,195.920 269.000 C 195.920 268.560,195.776 267.750,195.600 267.200 C 195.346 266.408,195.280 266.367,195.280 267.000 M196.069 270.800 C 196.056 271.350,196.195 272.520,196.377 273.400 C 196.589 274.426,196.716 274.641,196.731 274.000 C 196.744 273.450,196.605 272.280,196.423 271.400 C 196.211 270.374,196.084 270.159,196.069 270.800 M92.200 274.800 C 92.046 275.710,92.004 276.538,92.107 276.640 C 92.210 276.743,92.413 276.077,92.560 275.160 C 92.707 274.243,92.748 273.415,92.653 273.320 C 92.558 273.224,92.354 273.890,92.200 274.800 M300.686 276.486 C 300.321 277.625,300.090 278.623,300.171 278.704 C 300.252 278.785,300.625 277.929,301.000 276.800 C 301.375 275.671,301.606 274.673,301.515 274.581 C 301.423 274.490,301.050 275.347,300.686 276.486 M196.931 279.400 C 196.933 280.940,197.005 281.521,197.092 280.691 C 197.179 279.861,197.177 278.601,197.089 277.891 C 197.000 277.181,196.929 277.860,196.931 279.400 M91.392 279.738 C 91.239 281.169,91.193 282.578,91.290 282.870 C 91.387 283.161,91.590 282.068,91.742 280.441 C 91.893 278.814,91.939 277.405,91.843 277.310 C 91.748 277.215,91.545 278.308,91.392 279.738 M299.053 281.276 C 298.712 282.450,297.884 284.742,297.213 286.369 C 296.542 287.995,296.064 289.397,296.151 289.484 C 296.341 289.674,298.434 284.631,299.393 281.674 C 299.771 280.505,299.990 279.456,299.878 279.344 C 299.766 279.232,299.395 280.101,299.053 281.276 M106.087 282.665 C 104.837 283.282,102.916 285.449,103.289 285.822 C 103.386 285.919,103.694 285.572,103.973 285.050 C 105.156 282.839,109.172 281.745,111.564 282.981 C 112.878 283.661,113.361 284.727,114.180 288.757 C 114.510 290.383,114.900 291.823,115.047 291.957 C 115.193 292.091,115.181 291.660,115.021 291.000 C 114.861 290.340,114.572 288.838,114.380 287.662 C 113.566 282.696,110.173 280.652,106.087 282.665 M196.240 285.240 C 196.093 286.157,196.052 286.985,196.147 287.080 C 196.242 287.176,196.446 286.510,196.600 285.600 C 196.754 284.690,196.796 283.862,196.693 283.760 C 196.590 283.657,196.387 284.323,196.240 285.240 M90.942 287.400 C 90.941 289.380,91.008 290.240,91.092 289.312 C 91.176 288.384,91.177 286.764,91.095 285.712 C 91.012 284.660,90.943 285.420,90.942 287.400 M102.909 288.000 C 102.909 288.990,102.987 289.395,103.082 288.900 C 103.178 288.405,103.178 287.595,103.082 287.100 C 102.987 286.605,102.909 287.010,102.909 288.000 M195.400 289.200 C 195.248 289.891,195.207 290.541,195.309 290.642 C 195.411 290.744,195.609 290.253,195.750 289.550 C 196.083 287.883,195.760 287.560,195.400 289.200 M103.246 290.800 C 103.227 291.350,103.387 292.070,103.600 292.400 C 104.094 293.164,104.094 292.342,103.600 290.800 L 103.280 289.800 103.246 290.800 M204.255 291.855 C 204.113 292.886,204.074 293.808,204.169 293.902 C 204.263 293.996,204.465 293.239,204.618 292.218 C 204.771 291.198,204.810 290.276,204.704 290.171 C 204.598 290.065,204.396 290.823,204.255 291.855 M292.881 295.989 C 283.673 314.581,268.616 330.383,251.600 339.315 C 247.693 341.365,246.955 342.105,250.659 340.257 C 253.343 338.919,259.540 334.974,265.000 331.129 C 268.573 328.613,279.843 317.162,283.148 312.691 C 287.727 306.494,296.648 290.869,295.962 290.243 C 295.873 290.162,294.486 292.748,292.881 295.989 M194.109 293.493 C 193.663 294.762,193.174 296.160,193.021 296.600 C 192.838 297.131,192.951 297.064,193.358 296.400 C 194.118 295.160,195.346 291.613,195.100 291.367 C 195.001 291.267,194.554 292.224,194.109 293.493 M91.247 293.233 C 91.273 294.205,91.437 295.540,91.611 296.200 C 91.802 296.928,91.841 296.298,91.709 294.600 C 91.461 291.421,91.176 290.576,91.247 293.233 M104.020 293.468 C 103.963 294.784,108.024 304.800,108.615 304.800 C 108.726 304.800,108.426 304.035,107.949 303.100 C 107.471 302.165,106.397 299.510,105.561 297.200 C 104.725 294.890,104.031 293.211,104.020 293.468 M202.836 298.086 C 202.312 300.129,201.467 302.963,200.960 304.385 C 200.452 305.807,200.101 307.035,200.180 307.113 C 200.589 307.522,204.202 295.606,203.923 294.768 C 203.850 294.550,203.361 296.043,202.836 298.086 M116.809 296.516 C 116.761 298.174,122.549 306.442,126.462 310.305 C 131.144 314.928,140.469 320.864,141.472 319.861 C 141.564 319.769,140.688 319.358,139.525 318.947 C 132.430 316.440,122.804 307.305,118.141 298.653 C 117.413 297.304,116.814 296.342,116.809 296.516 M191.018 300.195 C 188.113 305.389,182.801 311.197,178.100 314.319 C 175.592 315.985,175.349 316.417,177.648 315.126 C 182.232 312.550,195.048 297.600,192.671 297.600 C 192.560 297.600,191.816 298.768,191.018 300.195 M92.080 298.600 C 92.080 299.040,92.224 299.850,92.400 300.400 C 92.654 301.192,92.720 301.233,92.720 300.600 C 92.720 300.160,92.576 299.350,92.400 298.800 C 92.146 298.008,92.080 297.967,92.080 298.600 M92.832 301.879 C 92.787 302.551,94.823 308.911,95.020 308.714 C 95.108 308.625,94.660 306.943,94.023 304.976 C 93.386 303.009,92.850 301.616,92.832 301.879 M108.800 305.396 C 108.800 306.626,115.562 315.302,118.936 318.400 C 122.956 322.092,131.272 327.662,131.870 327.063 C 131.949 326.984,130.886 326.322,129.507 325.591 C 122.327 321.789,114.572 314.432,110.602 307.657 C 109.309 305.451,108.800 304.813,108.800 305.396 M95.200 309.337 C 95.200 311.008,101.305 321.374,105.014 326.000 C 112.263 335.042,125.809 345.066,135.203 348.341 C 137.478 349.134,136.200 348.372,132.314 346.618 C 119.433 340.804,107.704 330.611,100.536 319.000 C 98.595 315.856,96.000 310.710,96.000 310.006 C 96.000 309.809,95.820 309.536,95.600 309.400 C 95.380 309.264,95.200 309.235,95.200 309.337 M197.621 311.706 C 192.873 320.639,185.216 327.128,175.493 330.457 C 173.022 331.303,171.301 331.996,171.668 331.998 C 172.547 332.001,178.963 329.732,181.000 328.698 C 187.877 325.206,195.001 318.068,198.235 311.431 C 199.626 308.576,199.178 308.777,197.621 311.706 M173.600 317.027 C 172.610 317.573,170.761 318.400,169.490 318.867 C 168.220 319.333,167.251 319.785,167.338 319.871 C 167.749 320.283,175.600 316.758,175.600 316.162 C 175.600 315.928,175.575 315.939,173.600 317.027 M144.800 321.200 C 146.168 321.638,147.219 321.638,146.200 321.200 C 145.760 321.011,145.040 320.862,144.600 320.868 C 143.957 320.877,143.996 320.943,144.800 321.200 M162.000 321.200 C 161.208 321.454,161.167 321.520,161.800 321.520 C 162.240 321.520,163.050 321.376,163.600 321.200 C 164.392 320.946,164.433 320.880,163.800 320.880 C 163.360 320.880,162.550 321.024,162.000 321.200 M148.228 322.053 C 149.810 322.394,156.525 322.395,159.000 322.055 C 160.193 321.891,158.188 321.784,154.028 321.790 C 150.193 321.796,147.583 321.914,148.228 322.053 M134.202 328.335 C 134.710 328.810,139.606 330.528,139.825 330.309 C 139.915 330.218,138.597 329.653,136.896 329.054 C 135.195 328.454,133.983 328.131,134.202 328.335 M141.000 330.800 C 141.440 330.989,142.070 331.144,142.400 331.144 C 142.778 331.144,142.704 331.017,142.200 330.800 C 141.760 330.611,141.130 330.456,140.800 330.456 C 140.422 330.456,140.496 330.583,141.000 330.800 M143.800 331.600 C 144.240 331.789,144.870 331.944,145.200 331.944 C 145.578 331.944,145.504 331.817,145.000 331.600 C 144.560 331.411,143.930 331.256,143.600 331.256 C 143.222 331.256,143.296 331.383,143.800 331.600 M146.800 332.379 C 147.786 332.716,151.090 332.941,150.767 332.650 C 150.675 332.568,149.520 332.396,148.200 332.269 C 146.645 332.120,146.152 332.158,146.800 332.379 M168.200 332.400 L 166.600 332.686 168.000 332.715 C 168.770 332.731,169.760 332.589,170.200 332.400 C 171.143 331.995,170.462 331.995,168.200 332.400 M152.800 333.270 C 155.060 333.610,161.496 333.604,164.400 333.260 C 165.641 333.114,163.199 333.000,158.800 333.000 C 154.510 333.000,151.810 333.122,152.800 333.270 M246.644 341.929 C 246.532 342.111,245.702 342.502,244.800 342.800 C 243.898 343.098,243.067 343.492,242.954 343.675 C 242.840 343.859,243.704 343.634,244.874 343.176 C 247.034 342.330,248.159 341.600,247.304 341.600 C 247.053 341.600,246.756 341.748,246.644 341.929 M239.000 345.212 C 237.460 345.842,234.800 346.841,233.089 347.434 C 231.378 348.027,230.042 348.575,230.119 348.653 C 230.332 348.866,237.890 346.240,240.400 345.081 C 243.370 343.710,242.470 343.794,239.000 345.212 M141.400 350.585 C 144.745 351.667,146.687 352.153,146.361 351.827 C 146.067 351.534,139.553 349.605,139.000 349.648 C 138.780 349.665,139.860 350.087,141.400 350.585 M225.000 349.964 C 224.560 350.136,222.594 350.609,220.631 351.016 C 218.668 351.422,217.251 351.817,217.481 351.894 C 217.937 352.046,226.817 350.117,227.137 349.796 C 227.441 349.492,225.895 349.614,225.000 349.964 M147.400 352.400 C 147.840 352.589,148.470 352.744,148.800 352.744 C 149.178 352.744,149.104 352.617,148.600 352.400 C 148.160 352.211,147.530 352.056,147.200 352.056 C 146.822 352.056,146.896 352.183,147.400 352.400 M214.400 352.400 C 213.608 352.654,213.567 352.720,214.200 352.720 C 214.640 352.720,215.450 352.576,216.000 352.400 C 216.792 352.146,216.833 352.080,216.200 352.080 C 215.760 352.080,214.950 352.224,214.400 352.400 M150.200 353.200 C 150.640 353.389,151.360 353.538,151.800 353.532 C 152.443 353.523,152.404 353.457,151.600 353.200 C 150.232 352.762,149.181 352.762,150.200 353.200 M210.400 353.200 C 209.056 353.631,210.508 353.631,212.200 353.200 C 213.278 352.926,213.298 352.894,212.400 352.887 C 211.850 352.883,210.950 353.024,210.400 353.200 M155.200 354.189 C 156.630 354.497,159.060 354.840,160.600 354.952 L 163.400 355.156 160.200 354.635 C 158.440 354.348,156.010 354.005,154.800 353.872 L 152.600 353.631 155.200 354.189 M205.000 354.000 C 203.234 354.449,205.245 354.469,207.400 354.023 L 209.000 353.692 207.600 353.693 C 206.830 353.694,205.660 353.832,205.000 354.000 M197.400 354.800 L 195.400 355.074 197.200 355.094 C 198.190 355.104,200.080 354.979,201.400 354.815 L 203.800 354.518 201.600 354.522 C 200.390 354.524,198.500 354.649,197.400 354.800 M167.000 355.658 C 168.980 355.799,174.560 355.915,179.400 355.915 C 184.240 355.915,189.820 355.799,191.800 355.658 C 193.780 355.516,188.200 355.400,179.400 355.400 C 170.600 355.400,165.020 355.516,167.000 355.658 " stroke="none" fill="#a7acc5" fill-rule="evenodd"></path></g></svg>